<mxfile host="Electron" agent="Mozilla/5.0 (Macintosh; Intel Mac OS X 10_15_7) AppleWebKit/537.36 (KHTML, like Gecko) draw.io/24.7.17 Chrome/128.0.6613.36 Electron/32.0.1 Safari/537.36" version="24.7.17">
  <diagram name="Pagina-1" id="L_QRP8urCwcG1CQ1ZGn3">
    <mxGraphModel dx="1165" dy="736" grid="1" gridSize="10" guides="1" tooltips="1" connect="1" arrows="1" fold="1" page="1" pageScale="1" pageWidth="1169" pageHeight="827" background="none" math="0" shadow="0">
      <root>
        <mxCell id="0" />
        <mxCell id="1" parent="0" />
        <mxCell id="BuGoJq52iL_hxvihvPB--1" value="&lt;font style=&quot;font-size: 15px;&quot;&gt;Dataset Prompt&lt;/font&gt;" style="shape=cylinder3;whiteSpace=wrap;html=1;boundedLbl=1;backgroundOutline=1;size=15;rounded=0;fillColor=#ffbd59;shadow=1;fontFamily=Tahoma;fontSize=15;fontStyle=1" parent="1" vertex="1">
          <mxGeometry x="30" y="350" width="70" height="90" as="geometry" />
        </mxCell>
        <mxCell id="BuGoJq52iL_hxvihvPB--2" value="&lt;font style=&quot;font-size: 15px;&quot; color=&quot;#ffffff&quot;&gt;Secure Code Studio&lt;/font&gt;" style="rounded=1;whiteSpace=wrap;html=1;fillColor=#787ff6;shadow=1;fontFamily=Tahoma;fontSize=15;fontStyle=1" parent="1" vertex="1">
          <mxGeometry x="170" y="220" width="80" height="80" as="geometry" />
        </mxCell>
        <mxCell id="BuGoJq52iL_hxvihvPB--3" value="&lt;font style=&quot;font-size: 15px;&quot;&gt;ChatGPT &amp;amp; Copilot&lt;/font&gt;" style="rounded=1;whiteSpace=wrap;html=1;shadow=1;fontColor=#FFFFFF;fillColor=#787ff6;fontFamily=Tahoma;fontSize=15;fontStyle=1" parent="1" vertex="1">
          <mxGeometry x="170" y="500" width="80" height="80" as="geometry" />
        </mxCell>
        <mxCell id="BuGoJq52iL_hxvihvPB--6" value="" style="endArrow=classic;html=1;rounded=0;entryX=0;entryY=0.5;entryDx=0;entryDy=0;fontFamily=Tahoma;fontSize=15;exitX=1;exitY=0.5;exitDx=0;exitDy=0;exitPerimeter=0;strokeWidth=3;" parent="1" source="BuGoJq52iL_hxvihvPB--1" target="BuGoJq52iL_hxvihvPB--2" edge="1">
          <mxGeometry width="50" height="50" relative="1" as="geometry">
            <mxPoint x="100" y="360" as="sourcePoint" />
            <mxPoint x="200" y="304" as="targetPoint" />
            <Array as="points">
              <mxPoint x="130" y="395" />
              <mxPoint x="130" y="260" />
            </Array>
          </mxGeometry>
        </mxCell>
        <mxCell id="BuGoJq52iL_hxvihvPB--7" value="" style="endArrow=classic;html=1;rounded=0;exitX=1;exitY=0.5;exitDx=0;exitDy=0;exitPerimeter=0;entryX=0;entryY=0.5;entryDx=0;entryDy=0;fontFamily=Tahoma;fontSize=15;strokeWidth=3;" parent="1" source="BuGoJq52iL_hxvihvPB--1" target="BuGoJq52iL_hxvihvPB--3" edge="1">
          <mxGeometry width="50" height="50" relative="1" as="geometry">
            <mxPoint x="580" y="420" as="sourcePoint" />
            <mxPoint x="240" y="370" as="targetPoint" />
            <Array as="points">
              <mxPoint x="130" y="395" />
              <mxPoint x="130" y="540" />
            </Array>
          </mxGeometry>
        </mxCell>
        <mxCell id="BuGoJq52iL_hxvihvPB--9" value="" style="shape=note;size=20;whiteSpace=wrap;html=1;rounded=0;shadow=1;fillColor=#7dd5f6;fontFamily=Tahoma;fontSize=15;fontStyle=1" parent="1" vertex="1">
          <mxGeometry x="410" y="150" width="90" height="70" as="geometry" />
        </mxCell>
        <mxCell id="BuGoJq52iL_hxvihvPB--10" value="&lt;font style=&quot;font-size: 15px;&quot;&gt;Best Practices&lt;/font&gt;&lt;div&gt;&lt;font style=&quot;font-size: 15px;&quot;&gt;applied&lt;/font&gt;&lt;/div&gt;" style="shape=card;whiteSpace=wrap;html=1;rounded=0;shadow=1;fillColor=#8bdddb;fontFamily=Tahoma;fontSize=15;fontStyle=1" parent="1" vertex="1">
          <mxGeometry x="425" y="280" width="100" height="80" as="geometry" />
        </mxCell>
        <mxCell id="BuGoJq52iL_hxvihvPB--11" value="&lt;font style=&quot;font-size: 15px;&quot;&gt;Secure Catalog&lt;/font&gt;" style="rounded=1;whiteSpace=wrap;html=1;shadow=1;fillColor=#FF99FF;fontFamily=Tahoma;fontSize=15;fontStyle=1" parent="1" vertex="1">
          <mxGeometry x="720" y="360" width="80" height="80" as="geometry" />
        </mxCell>
        <mxCell id="BuGoJq52iL_hxvihvPB--14" value="&lt;font style=&quot;font-size: 15px;&quot; color=&quot;#ffffff&quot;&gt;Gemma&lt;/font&gt;" style="rounded=1;whiteSpace=wrap;html=1;glass=0;shadow=1;fillColor=#787FF6;fontFamily=Tahoma;fontSize=15;fontStyle=1" parent="1" vertex="1">
          <mxGeometry x="890" y="360" width="80" height="80" as="geometry" />
        </mxCell>
        <mxCell id="BuGoJq52iL_hxvihvPB--15" value="&lt;font style=&quot;font-size: 15px;&quot;&gt;Secure Software&lt;/font&gt;" style="rounded=1;whiteSpace=wrap;html=1;shadow=1;fillColor=#7DD5F6;fontFamily=Tahoma;fontSize=15;fontStyle=1" parent="1" vertex="1">
          <mxGeometry x="1060" y="360" width="80" height="80" as="geometry" />
        </mxCell>
        <mxCell id="BuGoJq52iL_hxvihvPB--22" value="" style="endArrow=classic;html=1;rounded=0;exitX=1;exitY=0.5;exitDx=0;exitDy=0;entryX=0;entryY=0.5;entryDx=0;entryDy=0;fontFamily=Tahoma;fontSize=15;strokeWidth=3;" parent="1" source="BuGoJq52iL_hxvihvPB--14" target="BuGoJq52iL_hxvihvPB--15" edge="1">
          <mxGeometry width="50" height="50" relative="1" as="geometry">
            <mxPoint x="580" y="420" as="sourcePoint" />
            <mxPoint x="630" y="370" as="targetPoint" />
          </mxGeometry>
        </mxCell>
        <mxCell id="BuGoJq52iL_hxvihvPB--23" value="" style="endArrow=classic;html=1;rounded=0;entryX=0.25;entryY=0;entryDx=0;entryDy=0;fontFamily=Tahoma;fontSize=15;exitX=1;exitY=0.5;exitDx=0;exitDy=0;exitPerimeter=0;strokeWidth=3;" parent="1" source="BuGoJq52iL_hxvihvPB--10" target="BuGoJq52iL_hxvihvPB--11" edge="1">
          <mxGeometry width="50" height="50" relative="1" as="geometry">
            <mxPoint x="489" y="340" as="sourcePoint" />
            <mxPoint x="670" y="480" as="targetPoint" />
            <Array as="points">
              <mxPoint x="740" y="320" />
            </Array>
          </mxGeometry>
        </mxCell>
        <mxCell id="BuGoJq52iL_hxvihvPB--33" value="" style="endArrow=classic;html=1;rounded=0;exitX=1;exitY=0.5;exitDx=0;exitDy=0;entryX=0;entryY=0;entryDx=0;entryDy=55;entryPerimeter=0;fontFamily=Tahoma;fontSize=15;strokeWidth=3;targetPerimeterSpacing=0;" parent="1" source="BuGoJq52iL_hxvihvPB--2" target="BuGoJq52iL_hxvihvPB--10" edge="1">
          <mxGeometry width="50" height="50" relative="1" as="geometry">
            <mxPoint x="640" y="420" as="sourcePoint" />
            <mxPoint x="450" y="290" as="targetPoint" />
            <Array as="points">
              <mxPoint x="330" y="260" />
              <mxPoint x="330" y="335" />
            </Array>
          </mxGeometry>
        </mxCell>
        <mxCell id="_aqFW3fSVP8ixPci-sRK-24" value="&lt;span style=&quot;font-family: Tahoma; font-size: 15px;&quot;&gt;Security Evaluation&lt;/span&gt;" style="shape=document;whiteSpace=wrap;html=1;boundedLbl=1;fillColor=#FF8080;fontStyle=1" parent="1" vertex="1">
          <mxGeometry x="720" y="560" width="120" height="80" as="geometry" />
        </mxCell>
        <mxCell id="_aqFW3fSVP8ixPci-sRK-25" value="&lt;span style=&quot;font-family: Tahoma; font-size: 15px;&quot;&gt;Validations&lt;/span&gt;" style="shape=document;whiteSpace=wrap;html=1;boundedLbl=1;fillColor=#B2FFB2;fontStyle=1" parent="1" vertex="1">
          <mxGeometry x="840" y="470" width="120" height="80" as="geometry" />
        </mxCell>
        <mxCell id="ztLOinJmVwkMlbxt238A-3" value="" style="endArrow=classic;html=1;rounded=0;exitX=0.5;exitY=1;exitDx=0;exitDy=0;entryX=0;entryY=0.5;entryDx=0;entryDy=0;strokeWidth=3;" parent="1" source="BuGoJq52iL_hxvihvPB--11" target="_aqFW3fSVP8ixPci-sRK-25" edge="1">
          <mxGeometry width="50" height="50" relative="1" as="geometry">
            <mxPoint x="558" y="460" as="sourcePoint" />
            <mxPoint x="608" y="410" as="targetPoint" />
            <Array as="points">
              <mxPoint x="760" y="510" />
            </Array>
          </mxGeometry>
        </mxCell>
        <mxCell id="ztLOinJmVwkMlbxt238A-5" value="&lt;font face=&quot;Tahoma&quot; style=&quot;font-size: 15px;&quot;&gt;Security Evaluation&lt;/font&gt;" style="shape=document;whiteSpace=wrap;html=1;boundedLbl=1;fillColor=#FF8080;fontStyle=1" parent="1" vertex="1">
          <mxGeometry x="1040" y="520" width="120" height="80" as="geometry" />
        </mxCell>
        <mxCell id="ztLOinJmVwkMlbxt238A-6" value="" style="endArrow=classic;html=1;rounded=0;exitX=0.5;exitY=1;exitDx=0;exitDy=0;entryX=0.5;entryY=0;entryDx=0;entryDy=0;strokeWidth=3;" parent="1" source="BuGoJq52iL_hxvihvPB--15" target="ztLOinJmVwkMlbxt238A-5" edge="1">
          <mxGeometry width="50" height="50" relative="1" as="geometry">
            <mxPoint x="558" y="460" as="sourcePoint" />
            <mxPoint x="608" y="410" as="targetPoint" />
          </mxGeometry>
        </mxCell>
        <mxCell id="-Qch75GmUZu2UB7ai6wl-1" value="" style="shape=note;size=20;whiteSpace=wrap;html=1;rounded=0;shadow=1;fillColor=#7dd5f6;fontFamily=Tahoma;fontSize=15;fontStyle=1" parent="1" vertex="1">
          <mxGeometry x="420" y="160" width="90" height="70" as="geometry" />
        </mxCell>
        <mxCell id="ztLOinJmVwkMlbxt238A-10" value="" style="endArrow=classic;html=1;rounded=0;exitX=0;exitY=0;exitDx=120;exitDy=50;exitPerimeter=0;entryX=0;entryY=0.5;entryDx=0;entryDy=0;strokeWidth=3;" parent="1" source="0N5BPtMk4Cd2sUjET8Rb-5" target="_aqFW3fSVP8ixPci-sRK-24" edge="1">
          <mxGeometry width="50" height="50" relative="1" as="geometry">
            <mxPoint x="500" y="600" as="sourcePoint" />
            <mxPoint x="600" y="400" as="targetPoint" />
            <Array as="points">
              <mxPoint x="600" y="630" />
              <mxPoint x="600" y="600" />
            </Array>
          </mxGeometry>
        </mxCell>
        <mxCell id="-Qch75GmUZu2UB7ai6wl-2" value="&lt;font style=&quot;font-size: 15px;&quot;&gt;SCS&#39;s Code&lt;/font&gt;" style="shape=note;size=20;whiteSpace=wrap;html=1;rounded=0;shadow=1;fillColor=#7dd5f6;fontFamily=Tahoma;fontSize=15;fontStyle=1" parent="1" vertex="1">
          <mxGeometry x="430" y="170" width="90" height="70" as="geometry" />
        </mxCell>
        <mxCell id="BuGoJq52iL_hxvihvPB--34" value="" style="endArrow=classic;html=1;rounded=0;exitX=1;exitY=0.5;exitDx=0;exitDy=0;fontFamily=Tahoma;fontSize=15;strokeWidth=3;entryX=0;entryY=0.5;entryDx=0;entryDy=0;entryPerimeter=0;" parent="1" source="BuGoJq52iL_hxvihvPB--2" target="-Qch75GmUZu2UB7ai6wl-2" edge="1">
          <mxGeometry width="50" height="50" relative="1" as="geometry">
            <mxPoint x="640" y="420" as="sourcePoint" />
            <mxPoint x="380" y="150" as="targetPoint" />
            <Array as="points">
              <mxPoint x="330" y="260" />
              <mxPoint x="330" y="205" />
            </Array>
          </mxGeometry>
        </mxCell>
        <mxCell id="BuGoJq52iL_hxvihvPB--16" value="" style="endArrow=classic;html=1;rounded=0;entryX=0.75;entryY=0;entryDx=0;entryDy=0;fontFamily=Tahoma;fontSize=15;exitX=0;exitY=0;exitDx=90;exitDy=45;exitPerimeter=0;strokeWidth=3;" parent="1" source="-Qch75GmUZu2UB7ai6wl-2" target="BuGoJq52iL_hxvihvPB--11" edge="1">
          <mxGeometry width="50" height="50" relative="1" as="geometry">
            <mxPoint x="630" y="190" as="sourcePoint" />
            <mxPoint x="640" y="170" as="targetPoint" />
            <Array as="points">
              <mxPoint x="780" y="215" />
            </Array>
          </mxGeometry>
        </mxCell>
        <mxCell id="-Qch75GmUZu2UB7ai6wl-3" value="" style="endArrow=classic;html=1;rounded=0;exitX=0.5;exitY=1;exitDx=0;exitDy=0;exitPerimeter=0;entryX=0.5;entryY=0;entryDx=0;entryDy=0;strokeWidth=3;" parent="1" source="BuGoJq52iL_hxvihvPB--10" target="BuGoJq52iL_hxvihvPB--3" edge="1">
          <mxGeometry width="50" height="50" relative="1" as="geometry">
            <mxPoint x="560" y="450" as="sourcePoint" />
            <mxPoint x="610" y="400" as="targetPoint" />
            <Array as="points">
              <mxPoint x="475" y="410" />
              <mxPoint x="210" y="410" />
            </Array>
          </mxGeometry>
        </mxCell>
        <mxCell id="VfbTLuY6lKh-UDh_lYx1-2" value="" style="shape=note;size=20;whiteSpace=wrap;html=1;rounded=0;shadow=1;fillColor=#7DD5F6;fontFamily=Tahoma;fontSize=15;" parent="1" vertex="1">
          <mxGeometry x="400" y="440" width="120" height="80" as="geometry" />
        </mxCell>
        <mxCell id="VfbTLuY6lKh-UDh_lYx1-9" value="" style="endArrow=classic;html=1;rounded=0;entryX=0;entryY=0.5;entryDx=0;entryDy=0;strokeWidth=3;exitX=0;exitY=0;exitDx=120;exitDy=50;exitPerimeter=0;" parent="1" source="0N5BPtMk4Cd2sUjET8Rb-2" target="BuGoJq52iL_hxvihvPB--11" edge="1">
          <mxGeometry width="50" height="50" relative="1" as="geometry">
            <mxPoint x="530" y="470" as="sourcePoint" />
            <mxPoint x="610" y="350" as="targetPoint" />
            <Array as="points">
              <mxPoint x="640" y="510" />
              <mxPoint x="640" y="400" />
            </Array>
          </mxGeometry>
        </mxCell>
        <mxCell id="VfbTLuY6lKh-UDh_lYx1-10" value="" style="endArrow=classic;html=1;rounded=0;entryX=0;entryY=0.25;entryDx=0;entryDy=0;strokeWidth=3;exitX=0;exitY=0;exitDx=120;exitDy=50;exitPerimeter=0;" parent="1" source="0N5BPtMk4Cd2sUjET8Rb-2" target="_aqFW3fSVP8ixPci-sRK-24" edge="1">
          <mxGeometry width="50" height="50" relative="1" as="geometry">
            <mxPoint x="560" y="450" as="sourcePoint" />
            <mxPoint x="610" y="350" as="targetPoint" />
            <Array as="points">
              <mxPoint x="640" y="510" />
              <mxPoint x="640" y="580" />
            </Array>
          </mxGeometry>
        </mxCell>
        <mxCell id="VfbTLuY6lKh-UDh_lYx1-11" value="" style="endArrow=classic;html=1;rounded=0;entryX=0;entryY=0.5;entryDx=0;entryDy=0;exitX=1;exitY=0.5;exitDx=0;exitDy=0;strokeWidth=3;" parent="1" source="BuGoJq52iL_hxvihvPB--11" target="BuGoJq52iL_hxvihvPB--14" edge="1">
          <mxGeometry width="50" height="50" relative="1" as="geometry">
            <mxPoint x="560" y="400" as="sourcePoint" />
            <mxPoint x="610" y="350" as="targetPoint" />
          </mxGeometry>
        </mxCell>
        <mxCell id="0N5BPtMk4Cd2sUjET8Rb-1" value="" style="shape=note;size=20;whiteSpace=wrap;html=1;rounded=0;shadow=1;fillColor=#7DD5F6;fontFamily=Tahoma;fontSize=15;" vertex="1" parent="1">
          <mxGeometry x="410" y="450" width="120" height="80" as="geometry" />
        </mxCell>
        <mxCell id="0N5BPtMk4Cd2sUjET8Rb-2" value="&lt;font style=&quot;font-size: 15px;&quot;&gt;&lt;b&gt;ChatGPT &amp;amp; Copilot&#39;s Code&lt;/b&gt;&lt;/font&gt;" style="shape=note;size=20;whiteSpace=wrap;html=1;rounded=0;shadow=1;fillColor=#7DD5F6;fontFamily=Tahoma;fontSize=15;" vertex="1" parent="1">
          <mxGeometry x="420" y="460" width="120" height="80" as="geometry" />
        </mxCell>
        <mxCell id="VfbTLuY6lKh-UDh_lYx1-5" value="" style="endArrow=classic;html=1;rounded=0;strokeWidth=3;entryX=0;entryY=0.5;entryDx=0;entryDy=0;entryPerimeter=0;" parent="1" target="0N5BPtMk4Cd2sUjET8Rb-2" edge="1">
          <mxGeometry relative="1" as="geometry">
            <mxPoint x="250" y="520" as="sourcePoint" />
            <mxPoint x="340" y="470" as="targetPoint" />
          </mxGeometry>
        </mxCell>
        <mxCell id="VfbTLuY6lKh-UDh_lYx1-6" value="&lt;font style=&quot;font-size: 13px;&quot; face=&quot;Tahoma&quot;&gt;&lt;b&gt;Code&lt;/b&gt;&lt;/font&gt;&lt;div&gt;&lt;font style=&quot;font-size: 13px;&quot; face=&quot;Tahoma&quot;&gt;&lt;b&gt;with BP&lt;/b&gt;&lt;/font&gt;&lt;/div&gt;" style="edgeLabel;resizable=0;html=1;;align=center;verticalAlign=middle;" parent="VfbTLuY6lKh-UDh_lYx1-5" connectable="0" vertex="1">
          <mxGeometry relative="1" as="geometry" />
        </mxCell>
        <mxCell id="0N5BPtMk4Cd2sUjET8Rb-3" value="" style="shape=note;size=20;whiteSpace=wrap;html=1;rounded=0;shadow=1;fillColor=#7DD5F6;fontFamily=Tahoma;fontSize=15;" vertex="1" parent="1">
          <mxGeometry x="400" y="560" width="120" height="80" as="geometry" />
        </mxCell>
        <mxCell id="0N5BPtMk4Cd2sUjET8Rb-4" value="" style="shape=note;size=20;whiteSpace=wrap;html=1;rounded=0;shadow=1;fillColor=#7DD5F6;fontFamily=Tahoma;fontSize=15;" vertex="1" parent="1">
          <mxGeometry x="410" y="570" width="120" height="80" as="geometry" />
        </mxCell>
        <mxCell id="0N5BPtMk4Cd2sUjET8Rb-5" value="&lt;font style=&quot;font-size: 15px;&quot;&gt;&lt;b&gt;ChatGPT &amp;amp; Copilot&#39;s Code&lt;/b&gt;&lt;/font&gt;" style="shape=note;size=20;whiteSpace=wrap;html=1;rounded=0;shadow=1;fillColor=#7DD5F6;fontFamily=Tahoma;fontSize=15;" vertex="1" parent="1">
          <mxGeometry x="420" y="580" width="120" height="80" as="geometry" />
        </mxCell>
        <mxCell id="VfbTLuY6lKh-UDh_lYx1-7" value="" style="endArrow=classic;html=1;rounded=0;strokeWidth=3;exitX=1;exitY=0.75;exitDx=0;exitDy=0;entryX=0;entryY=0.5;entryDx=0;entryDy=0;entryPerimeter=0;" parent="1" source="BuGoJq52iL_hxvihvPB--3" target="0N5BPtMk4Cd2sUjET8Rb-5" edge="1">
          <mxGeometry relative="1" as="geometry">
            <mxPoint x="260" y="530" as="sourcePoint" />
            <mxPoint x="310" y="650" as="targetPoint" />
          </mxGeometry>
        </mxCell>
        <mxCell id="VfbTLuY6lKh-UDh_lYx1-8" value="&lt;font style=&quot;font-size: 13px;&quot; face=&quot;Tahoma&quot;&gt;&lt;b&gt;Code&lt;/b&gt;&lt;/font&gt;&lt;div&gt;&lt;font style=&quot;font-size: 13px;&quot; face=&quot;Tahoma&quot;&gt;&lt;b&gt;without BP&lt;/b&gt;&lt;/font&gt;&lt;/div&gt;" style="edgeLabel;resizable=0;html=1;;align=center;verticalAlign=middle;" parent="VfbTLuY6lKh-UDh_lYx1-7" connectable="0" vertex="1">
          <mxGeometry relative="1" as="geometry" />
        </mxCell>
      </root>
    </mxGraphModel>
  </diagram>
</mxfile>
